<svg width="326" height="144" viewBox="0 0 326 144" fill="none" xmlns="http://www.w3.org/2000/svg">
<g clip-path="url(#clip0_72139_717)">
<path d="M0 15C0 6.71573 6.71573 0 15 0H311C319.284 0 326 6.71573 326 15V144H0V15Z" fill="#41CBD3"/>
<mask id="mask0_72139_717" style="mask-type:luminance" maskUnits="userSpaceOnUse" x="0" y="0" width="326" height="144">
<path d="M0 15C0 6.71573 6.71573 0 15 0H311C319.284 0 326 6.71573 326 15V144H0V15Z" fill="white"/>
</mask>
<g mask="url(#mask0_72139_717)">
<ellipse opacity="0.5" cx="37.4785" cy="12.8" rx="14.8" ry="14.8344" transform="rotate(90 37.4785 12.8)" fill="url(#paint0_linear_72139_717)"/>
<ellipse opacity="0.5" cx="-8.16565" cy="12.8" rx="14.8344" ry="14.8" transform="rotate(180 -8.16565 12.8)" fill="url(#paint1_linear_72139_717)"/>
<ellipse opacity="0.5" cx="128.767" cy="12.8" rx="14.8344" ry="14.8" fill="url(#paint2_linear_72139_717)"/>
<ellipse opacity="0.5" cx="83.1227" cy="12.8" rx="14.8" ry="14.8344" transform="rotate(-90 83.1227 12.8)" fill="url(#paint3_linear_72139_717)"/>
<ellipse opacity="0.5" cx="220.055" cy="12.8" rx="14.8" ry="14.8344" transform="rotate(90 220.055 12.8)" fill="url(#paint4_linear_72139_717)"/>
<ellipse opacity="0.5" cx="174.411" cy="12.8" rx="14.8344" ry="14.8" transform="rotate(180 174.411 12.8)" fill="url(#paint5_linear_72139_717)"/>
<ellipse opacity="0.5" cx="311.344" cy="12.8" rx="14.8344" ry="14.8" fill="url(#paint6_linear_72139_717)"/>
<ellipse opacity="0.5" cx="265.699" cy="12.8" rx="14.8" ry="14.8344" transform="rotate(-90 265.699 12.8)" fill="url(#paint7_linear_72139_717)"/>
<ellipse opacity="0.5" cx="37.4785" cy="108.431" rx="14.8" ry="14.8344" transform="rotate(90 37.4785 108.431)" fill="url(#paint8_linear_72139_717)"/>
<ellipse opacity="0.5" cx="-8.16565" cy="108.431" rx="14.8344" ry="14.8" transform="rotate(180 -8.16565 108.431)" fill="url(#paint9_linear_72139_717)"/>
<ellipse opacity="0.5" cx="128.767" cy="108.431" rx="14.8344" ry="14.8" fill="url(#paint10_linear_72139_717)"/>
<ellipse opacity="0.5" cx="83.1227" cy="108.431" rx="14.8" ry="14.8344" transform="rotate(-90 83.1227 108.431)" fill="url(#paint11_linear_72139_717)"/>
<ellipse opacity="0.5" cx="220.055" cy="108.431" rx="14.8" ry="14.8344" transform="rotate(90 220.055 108.431)" fill="url(#paint12_linear_72139_717)"/>
<ellipse opacity="0.5" cx="174.411" cy="108.431" rx="14.8344" ry="14.8" transform="rotate(180 174.411 108.431)" fill="url(#paint13_linear_72139_717)"/>
<ellipse opacity="0.5" cx="311.344" cy="108.431" rx="14.8344" ry="14.8" fill="url(#paint14_linear_72139_717)"/>
<ellipse opacity="0.5" cx="265.699" cy="108.431" rx="14.8" ry="14.8344" transform="rotate(-90 265.699 108.431)" fill="url(#paint15_linear_72139_717)"/>
<ellipse opacity="0.5" cx="37.4785" cy="60.6154" rx="14.8" ry="14.8344" transform="rotate(-90 37.4785 60.6154)" fill="url(#paint16_linear_72139_717)"/>
<ellipse opacity="0.5" cx="-8.16564" cy="60.6154" rx="14.8344" ry="14.8" fill="url(#paint17_linear_72139_717)"/>
<ellipse opacity="0.5" cx="128.767" cy="60.6154" rx="14.8344" ry="14.8" fill="url(#paint18_linear_72139_717)"/>
<ellipse opacity="0.5" cx="83.1227" cy="60.6154" rx="14.8" ry="14.8344" transform="rotate(90 83.1227 60.6154)" fill="url(#paint19_linear_72139_717)"/>
<ellipse opacity="0.5" cx="220.055" cy="60.6154" rx="14.8" ry="14.8344" transform="rotate(-90 220.055 60.6154)" fill="url(#paint20_linear_72139_717)"/>
<ellipse opacity="0.5" cx="174.411" cy="60.6154" rx="14.8344" ry="14.8" fill="url(#paint21_linear_72139_717)"/>
<ellipse opacity="0.5" cx="311.344" cy="60.6154" rx="14.8344" ry="14.8" fill="url(#paint22_linear_72139_717)"/>
<ellipse opacity="0.5" cx="265.699" cy="60.6154" rx="14.8" ry="14.8344" transform="rotate(90 265.699 60.6154)" fill="url(#paint23_linear_72139_717)"/>
<ellipse opacity="0.5" cx="60.3005" cy="35.5692" rx="14.8" ry="14.8344" transform="rotate(90 60.3005 35.5692)" fill="url(#paint24_linear_72139_717)"/>
<ellipse opacity="0.5" cx="14.6564" cy="35.5693" rx="14.8344" ry="14.8" transform="rotate(180 14.6564 35.5693)" fill="url(#paint25_linear_72139_717)"/>
<ellipse opacity="0.5" cx="151.589" cy="35.5692" rx="14.8344" ry="14.8" fill="url(#paint26_linear_72139_717)"/>
<ellipse opacity="0.5" cx="105.945" cy="35.5693" rx="14.8" ry="14.8344" transform="rotate(-90 105.945 35.5693)" fill="url(#paint27_linear_72139_717)"/>
<ellipse opacity="0.5" cx="242.877" cy="35.5692" rx="14.8" ry="14.8344" transform="rotate(90 242.877 35.5692)" fill="url(#paint28_linear_72139_717)"/>
<ellipse opacity="0.5" cx="197.233" cy="35.5693" rx="14.8344" ry="14.8" transform="rotate(180 197.233 35.5693)" fill="url(#paint29_linear_72139_717)"/>
<ellipse opacity="0.5" cx="334.166" cy="35.5692" rx="14.8344" ry="14.8" fill="url(#paint30_linear_72139_717)"/>
<ellipse opacity="0.5" cx="288.521" cy="35.5693" rx="14.8" ry="14.8344" transform="rotate(-90 288.521 35.5693)" fill="url(#paint31_linear_72139_717)"/>
<ellipse opacity="0.5" cx="60.3005" cy="131.2" rx="14.8" ry="14.8344" transform="rotate(90 60.3005 131.2)" fill="url(#paint32_linear_72139_717)"/>
<ellipse opacity="0.5" cx="14.6564" cy="131.2" rx="14.8344" ry="14.8" transform="rotate(180 14.6564 131.2)" fill="url(#paint33_linear_72139_717)"/>
<ellipse opacity="0.5" cx="151.589" cy="131.2" rx="14.8344" ry="14.8" fill="url(#paint34_linear_72139_717)"/>
<ellipse opacity="0.5" cx="105.945" cy="131.2" rx="14.8" ry="14.8344" transform="rotate(-90 105.945 131.2)" fill="url(#paint35_linear_72139_717)"/>
<ellipse opacity="0.5" cx="242.877" cy="131.2" rx="14.8" ry="14.8344" transform="rotate(90 242.877 131.2)" fill="url(#paint36_linear_72139_717)"/>
<ellipse opacity="0.5" cx="197.233" cy="131.2" rx="14.8344" ry="14.8" transform="rotate(180 197.233 131.2)" fill="url(#paint37_linear_72139_717)"/>
<ellipse opacity="0.5" cx="334.166" cy="131.2" rx="14.8344" ry="14.8" fill="url(#paint38_linear_72139_717)"/>
<ellipse opacity="0.5" cx="288.521" cy="131.2" rx="14.8" ry="14.8344" transform="rotate(-90 288.521 131.2)" fill="url(#paint39_linear_72139_717)"/>
<ellipse opacity="0.5" cx="60.3007" cy="83.3846" rx="14.8" ry="14.8344" transform="rotate(-90 60.3007 83.3846)" fill="url(#paint40_linear_72139_717)"/>
<ellipse opacity="0.5" cx="14.6565" cy="83.3846" rx="14.8344" ry="14.8" fill="url(#paint41_linear_72139_717)"/>
<ellipse opacity="0.5" cx="151.589" cy="83.3846" rx="14.8344" ry="14.8" fill="url(#paint42_linear_72139_717)"/>
<ellipse opacity="0.5" cx="105.945" cy="83.3846" rx="14.8" ry="14.8344" transform="rotate(90 105.945 83.3846)" fill="url(#paint43_linear_72139_717)"/>
<ellipse opacity="0.5" cx="242.877" cy="83.3846" rx="14.8" ry="14.8344" transform="rotate(-90 242.877 83.3846)" fill="url(#paint44_linear_72139_717)"/>
<ellipse opacity="0.5" cx="197.233" cy="83.3846" rx="14.8344" ry="14.8" fill="url(#paint45_linear_72139_717)"/>
<ellipse opacity="0.5" cx="334.166" cy="83.3846" rx="14.8344" ry="14.8" fill="url(#paint46_linear_72139_717)"/>
<ellipse opacity="0.5" cx="288.522" cy="83.3846" rx="14.8" ry="14.8344" transform="rotate(90 288.522 83.3846)" fill="url(#paint47_linear_72139_717)"/>
</g>
</g>
<defs>
<linearGradient id="paint0_linear_72139_717" x1="22.7937" y1="-1.80338" x2="22.7937" y2="27.6344" gradientUnits="userSpaceOnUse">
<stop stop-color="#0989B4" stop-opacity="0.01"/>
<stop offset="0.999399" stop-color="#53FFEE"/>
</linearGradient>
<linearGradient id="paint1_linear_72139_717" x1="-22.8845" y1="-1.76952" x2="-22.8845" y2="27.6" gradientUnits="userSpaceOnUse">
<stop stop-color="#0989B4" stop-opacity="0.01"/>
<stop offset="0.999399" stop-color="#53FFEE"/>
</linearGradient>
<linearGradient id="paint2_linear_72139_717" x1="114.048" y1="-1.76956" x2="114.048" y2="27.6" gradientUnits="userSpaceOnUse">
<stop stop-color="#0989B4" stop-opacity="0.01"/>
<stop offset="0.999399" stop-color="#53FFEE"/>
</linearGradient>
<linearGradient id="paint3_linear_72139_717" x1="68.4379" y1="-1.80334" x2="68.4379" y2="27.6344" gradientUnits="userSpaceOnUse">
<stop stop-color="#0989B4" stop-opacity="0.01"/>
<stop offset="0.999399" stop-color="#53FFEE"/>
</linearGradient>
<linearGradient id="paint4_linear_72139_717" x1="205.37" y1="-1.80338" x2="205.37" y2="27.6344" gradientUnits="userSpaceOnUse">
<stop stop-color="#0989B4" stop-opacity="0.01"/>
<stop offset="0.999399" stop-color="#53FFEE"/>
</linearGradient>
<linearGradient id="paint5_linear_72139_717" x1="159.692" y1="-1.76952" x2="159.692" y2="27.6" gradientUnits="userSpaceOnUse">
<stop stop-color="#0989B4" stop-opacity="0.01"/>
<stop offset="0.999399" stop-color="#53FFEE"/>
</linearGradient>
<linearGradient id="paint6_linear_72139_717" x1="296.625" y1="-1.76956" x2="296.625" y2="27.6" gradientUnits="userSpaceOnUse">
<stop stop-color="#0989B4" stop-opacity="0.01"/>
<stop offset="0.999399" stop-color="#53FFEE"/>
</linearGradient>
<linearGradient id="paint7_linear_72139_717" x1="251.015" y1="-1.80334" x2="251.015" y2="27.6344" gradientUnits="userSpaceOnUse">
<stop stop-color="#0989B4" stop-opacity="0.01"/>
<stop offset="0.999399" stop-color="#53FFEE"/>
</linearGradient>
<linearGradient id="paint8_linear_72139_717" x1="22.7937" y1="93.8274" x2="22.7937" y2="123.265" gradientUnits="userSpaceOnUse">
<stop stop-color="#0989B4" stop-opacity="0.01"/>
<stop offset="0.999399" stop-color="#53FFEE"/>
</linearGradient>
<linearGradient id="paint9_linear_72139_717" x1="-22.8845" y1="93.8612" x2="-22.8845" y2="123.231" gradientUnits="userSpaceOnUse">
<stop stop-color="#0989B4" stop-opacity="0.01"/>
<stop offset="0.999399" stop-color="#53FFEE"/>
</linearGradient>
<linearGradient id="paint10_linear_72139_717" x1="114.048" y1="93.8612" x2="114.048" y2="123.231" gradientUnits="userSpaceOnUse">
<stop stop-color="#0989B4" stop-opacity="0.01"/>
<stop offset="0.999399" stop-color="#53FFEE"/>
</linearGradient>
<linearGradient id="paint11_linear_72139_717" x1="68.4379" y1="93.8274" x2="68.4379" y2="123.265" gradientUnits="userSpaceOnUse">
<stop stop-color="#0989B4" stop-opacity="0.01"/>
<stop offset="0.999399" stop-color="#53FFEE"/>
</linearGradient>
<linearGradient id="paint12_linear_72139_717" x1="205.37" y1="93.8274" x2="205.37" y2="123.265" gradientUnits="userSpaceOnUse">
<stop stop-color="#0989B4" stop-opacity="0.01"/>
<stop offset="0.999399" stop-color="#53FFEE"/>
</linearGradient>
<linearGradient id="paint13_linear_72139_717" x1="159.692" y1="93.8612" x2="159.692" y2="123.231" gradientUnits="userSpaceOnUse">
<stop stop-color="#0989B4" stop-opacity="0.01"/>
<stop offset="0.999399" stop-color="#53FFEE"/>
</linearGradient>
<linearGradient id="paint14_linear_72139_717" x1="296.625" y1="93.8612" x2="296.625" y2="123.231" gradientUnits="userSpaceOnUse">
<stop stop-color="#0989B4" stop-opacity="0.01"/>
<stop offset="0.999399" stop-color="#53FFEE"/>
</linearGradient>
<linearGradient id="paint15_linear_72139_717" x1="251.015" y1="93.8274" x2="251.015" y2="123.265" gradientUnits="userSpaceOnUse">
<stop stop-color="#0989B4" stop-opacity="0.01"/>
<stop offset="0.999399" stop-color="#53FFEE"/>
</linearGradient>
<linearGradient id="paint16_linear_72139_717" x1="22.7937" y1="46.012" x2="22.7937" y2="75.4498" gradientUnits="userSpaceOnUse">
<stop stop-color="#0989B4" stop-opacity="0.01"/>
<stop offset="0.999399" stop-color="#53FFEE"/>
</linearGradient>
<linearGradient id="paint17_linear_72139_717" x1="-22.8845" y1="46.0458" x2="-22.8845" y2="75.4154" gradientUnits="userSpaceOnUse">
<stop stop-color="#0989B4" stop-opacity="0.01"/>
<stop offset="0.999399" stop-color="#53FFEE"/>
</linearGradient>
<linearGradient id="paint18_linear_72139_717" x1="114.048" y1="46.0458" x2="114.048" y2="75.4154" gradientUnits="userSpaceOnUse">
<stop stop-color="#0989B4" stop-opacity="0.01"/>
<stop offset="0.999399" stop-color="#53FFEE"/>
</linearGradient>
<linearGradient id="paint19_linear_72139_717" x1="68.4379" y1="46.012" x2="68.4379" y2="75.4497" gradientUnits="userSpaceOnUse">
<stop stop-color="#0989B4" stop-opacity="0.01"/>
<stop offset="0.999399" stop-color="#53FFEE"/>
</linearGradient>
<linearGradient id="paint20_linear_72139_717" x1="205.37" y1="46.012" x2="205.37" y2="75.4498" gradientUnits="userSpaceOnUse">
<stop stop-color="#0989B4" stop-opacity="0.01"/>
<stop offset="0.999399" stop-color="#53FFEE"/>
</linearGradient>
<linearGradient id="paint21_linear_72139_717" x1="159.692" y1="46.0458" x2="159.692" y2="75.4154" gradientUnits="userSpaceOnUse">
<stop stop-color="#0989B4" stop-opacity="0.01"/>
<stop offset="0.999399" stop-color="#53FFEE"/>
</linearGradient>
<linearGradient id="paint22_linear_72139_717" x1="296.625" y1="46.0458" x2="296.625" y2="75.4154" gradientUnits="userSpaceOnUse">
<stop stop-color="#0989B4" stop-opacity="0.01"/>
<stop offset="0.999399" stop-color="#53FFEE"/>
</linearGradient>
<linearGradient id="paint23_linear_72139_717" x1="251.015" y1="46.012" x2="251.015" y2="75.4497" gradientUnits="userSpaceOnUse">
<stop stop-color="#0989B4" stop-opacity="0.01"/>
<stop offset="0.999399" stop-color="#53FFEE"/>
</linearGradient>
<linearGradient id="paint24_linear_72139_717" x1="45.6158" y1="20.9658" x2="45.6158" y2="50.4036" gradientUnits="userSpaceOnUse">
<stop stop-color="#0989B4" stop-opacity="0.01"/>
<stop offset="0.999399" stop-color="#53FFEE"/>
</linearGradient>
<linearGradient id="paint25_linear_72139_717" x1="-0.0625003" y1="20.9997" x2="-0.0625003" y2="50.3693" gradientUnits="userSpaceOnUse">
<stop stop-color="#0989B4" stop-opacity="0.01"/>
<stop offset="0.999399" stop-color="#53FFEE"/>
</linearGradient>
<linearGradient id="paint26_linear_72139_717" x1="136.87" y1="20.9997" x2="136.87" y2="50.3692" gradientUnits="userSpaceOnUse">
<stop stop-color="#0989B4" stop-opacity="0.01"/>
<stop offset="0.999399" stop-color="#53FFEE"/>
</linearGradient>
<linearGradient id="paint27_linear_72139_717" x1="91.2599" y1="20.9659" x2="91.2599" y2="50.4036" gradientUnits="userSpaceOnUse">
<stop stop-color="#0989B4" stop-opacity="0.01"/>
<stop offset="0.999399" stop-color="#53FFEE"/>
</linearGradient>
<linearGradient id="paint28_linear_72139_717" x1="228.192" y1="20.9658" x2="228.192" y2="50.4036" gradientUnits="userSpaceOnUse">
<stop stop-color="#0989B4" stop-opacity="0.01"/>
<stop offset="0.999399" stop-color="#53FFEE"/>
</linearGradient>
<linearGradient id="paint29_linear_72139_717" x1="182.514" y1="20.9997" x2="182.514" y2="50.3693" gradientUnits="userSpaceOnUse">
<stop stop-color="#0989B4" stop-opacity="0.01"/>
<stop offset="0.999399" stop-color="#53FFEE"/>
</linearGradient>
<linearGradient id="paint30_linear_72139_717" x1="319.447" y1="20.9997" x2="319.447" y2="50.3692" gradientUnits="userSpaceOnUse">
<stop stop-color="#0989B4" stop-opacity="0.01"/>
<stop offset="0.999399" stop-color="#53FFEE"/>
</linearGradient>
<linearGradient id="paint31_linear_72139_717" x1="273.837" y1="20.9659" x2="273.837" y2="50.4036" gradientUnits="userSpaceOnUse">
<stop stop-color="#0989B4" stop-opacity="0.01"/>
<stop offset="0.999399" stop-color="#53FFEE"/>
</linearGradient>
<linearGradient id="paint32_linear_72139_717" x1="45.6158" y1="116.597" x2="45.6158" y2="146.034" gradientUnits="userSpaceOnUse">
<stop stop-color="#0989B4" stop-opacity="0.01"/>
<stop offset="0.999399" stop-color="#53FFEE"/>
</linearGradient>
<linearGradient id="paint33_linear_72139_717" x1="-0.0625003" y1="116.63" x2="-0.0625003" y2="146" gradientUnits="userSpaceOnUse">
<stop stop-color="#0989B4" stop-opacity="0.01"/>
<stop offset="0.999399" stop-color="#53FFEE"/>
</linearGradient>
<linearGradient id="paint34_linear_72139_717" x1="136.87" y1="116.63" x2="136.87" y2="146" gradientUnits="userSpaceOnUse">
<stop stop-color="#0989B4" stop-opacity="0.01"/>
<stop offset="0.999399" stop-color="#53FFEE"/>
</linearGradient>
<linearGradient id="paint35_linear_72139_717" x1="91.2599" y1="116.597" x2="91.2599" y2="146.034" gradientUnits="userSpaceOnUse">
<stop stop-color="#0989B4" stop-opacity="0.01"/>
<stop offset="0.999399" stop-color="#53FFEE"/>
</linearGradient>
<linearGradient id="paint36_linear_72139_717" x1="228.192" y1="116.597" x2="228.192" y2="146.034" gradientUnits="userSpaceOnUse">
<stop stop-color="#0989B4" stop-opacity="0.01"/>
<stop offset="0.999399" stop-color="#53FFEE"/>
</linearGradient>
<linearGradient id="paint37_linear_72139_717" x1="182.514" y1="116.63" x2="182.514" y2="146" gradientUnits="userSpaceOnUse">
<stop stop-color="#0989B4" stop-opacity="0.01"/>
<stop offset="0.999399" stop-color="#53FFEE"/>
</linearGradient>
<linearGradient id="paint38_linear_72139_717" x1="319.447" y1="116.63" x2="319.447" y2="146" gradientUnits="userSpaceOnUse">
<stop stop-color="#0989B4" stop-opacity="0.01"/>
<stop offset="0.999399" stop-color="#53FFEE"/>
</linearGradient>
<linearGradient id="paint39_linear_72139_717" x1="273.837" y1="116.597" x2="273.837" y2="146.034" gradientUnits="userSpaceOnUse">
<stop stop-color="#0989B4" stop-opacity="0.01"/>
<stop offset="0.999399" stop-color="#53FFEE"/>
</linearGradient>
<linearGradient id="paint40_linear_72139_717" x1="45.6159" y1="68.7812" x2="45.6159" y2="98.219" gradientUnits="userSpaceOnUse">
<stop stop-color="#0989B4" stop-opacity="0.01"/>
<stop offset="0.999399" stop-color="#53FFEE"/>
</linearGradient>
<linearGradient id="paint41_linear_72139_717" x1="-0.0623687" y1="68.815" x2="-0.0623687" y2="98.1846" gradientUnits="userSpaceOnUse">
<stop stop-color="#0989B4" stop-opacity="0.01"/>
<stop offset="0.999399" stop-color="#53FFEE"/>
</linearGradient>
<linearGradient id="paint42_linear_72139_717" x1="136.87" y1="68.815" x2="136.87" y2="98.1846" gradientUnits="userSpaceOnUse">
<stop stop-color="#0989B4" stop-opacity="0.01"/>
<stop offset="0.999399" stop-color="#53FFEE"/>
</linearGradient>
<linearGradient id="paint43_linear_72139_717" x1="91.26" y1="68.7812" x2="91.26" y2="98.219" gradientUnits="userSpaceOnUse">
<stop stop-color="#0989B4" stop-opacity="0.01"/>
<stop offset="0.999399" stop-color="#53FFEE"/>
</linearGradient>
<linearGradient id="paint44_linear_72139_717" x1="228.193" y1="68.7812" x2="228.193" y2="98.219" gradientUnits="userSpaceOnUse">
<stop stop-color="#0989B4" stop-opacity="0.01"/>
<stop offset="0.999399" stop-color="#53FFEE"/>
</linearGradient>
<linearGradient id="paint45_linear_72139_717" x1="182.514" y1="68.815" x2="182.514" y2="98.1846" gradientUnits="userSpaceOnUse">
<stop stop-color="#0989B4" stop-opacity="0.01"/>
<stop offset="0.999399" stop-color="#53FFEE"/>
</linearGradient>
<linearGradient id="paint46_linear_72139_717" x1="319.447" y1="68.815" x2="319.447" y2="98.1846" gradientUnits="userSpaceOnUse">
<stop stop-color="#0989B4" stop-opacity="0.01"/>
<stop offset="0.999399" stop-color="#53FFEE"/>
</linearGradient>
<linearGradient id="paint47_linear_72139_717" x1="273.837" y1="68.7812" x2="273.837" y2="98.219" gradientUnits="userSpaceOnUse">
<stop stop-color="#0989B4" stop-opacity="0.01"/>
<stop offset="0.999399" stop-color="#53FFEE"/>
</linearGradient>
<clipPath id="clip0_72139_717">
<rect width="326" height="144" fill="white"/>
</clipPath>
</defs>
</svg>
